<svg xmlns="http://www.w3.org/2000/svg" version="1.0" viewBox="0 0 921.26 425.2">
  <title>IceModz - giropay</title>
  <g fill-rule="evenodd">
    <path fill="#000268" d="M17.72 90.48c0-37.74 30.75-68.34 68.67-68.34h748.48c37.93 0 68.67 30.6 68.67 68.34v244.25c0 37.72-30.74 68.33-68.67 68.33H86.39c-37.92 0-68.67-30.6-68.67-68.33V90.48z"/>
    <path fill="#fff" d="M45.9 92.82v239.6c0 23.57 19.23 42.7 42.94 42.7h392.13v-325H88.84c-23.71 0-42.94 19.12-42.94 42.7zm536.4 118.6c0 15.26-7.55 25.74-20.04 25.74-11.04 0-20.24-10.48-20.24-24.45 0-14.34 8.1-25 20.24-25 12.87 0 20.03 11.03 20.03 23.71zm-73.35 87.49h33.07v-52.02h.37c6.27 11.4 18.78 15.62 30.35 15.62 28.49 0 43.74-23.52 43.74-51.83 0-23.15-14.51-48.35-41-48.35-15.05 0-29.02 6.07-35.66 19.5h-.37v-17.27h-30.5V298.9zm152.7-68.93c0-9.18 8.82-12.66 20.04-12.66 4.96 0 9.75.34 13.97.54 0 11.2-7.9 22.6-20.4 22.6-7.73 0-13.6-3.85-13.6-10.48zm66.72 30.33c-1.46-7.53-1.83-15.08-1.83-22.6v-35.66c0-29.23-21.13-39.72-45.58-39.72-14.15 0-26.47 2.03-38.23 6.81l.56 22.44c9.16-5.16 19.84-7.18 30.5-7.18 11.93 0 21.68 3.5 21.87 16.55a96.52 96.52 0 00-15.44-1.3c-17.63 0-49.44 3.5-49.44 32.72 0 20.78 16.9 30.14 35.84 30.14 13.6 0 22.8-5.31 30.33-17.28h.37c0 4.98.54 9.92.74 15.08h30.3zm14.88 38.6a96.24 96.24 0 0020.58 2.22c30.34 0 37.5-23.35 46.87-47.43l35.12-89.14h-33.1l-19.66 62.48h-.37l-20.59-62.48h-35.64l38.77 97.95c-2.4 8.46-8.63 13.25-16.73 13.25-4.61 0-8.64-.56-13.05-2.03l-2.2 25.18z"/>
    <path fill="#ff0007" d="M126.7 211.61c0-13.05 6.44-23.9 18.76-23.9 14.88 0 21.13 11.94 21.13 22.6 0 14.71-9.38 24.63-21.13 24.63-9.92 0-18.76-8.44-18.76-23.33zm71.87-47.05h-29.96v17.27h-.35c-7-11.77-18.4-19.5-32.55-19.5-29.76 0-43.19 21.35-43.19 49.83 0 28.3 16.36 48.15 42.63 48.15 13.25 0 24.28-5.16 32.18-16.36h.37v5.15c0 18.74-10.3 27.75-29.4 27.75-13.8 0-22.26-2.94-32.35-7.9l-1.66 26.11c7.7 2.76 20.76 6.07 36.58 6.07 38.6 0 57.7-12.69 57.7-52.03v-84.54zm55.92-39.89H221.4v24.26h33.09v-24.26zm-33.07 135.64h33.07v-95.75h-33.07v95.75zm125.2-96.87c-3.32-.54-7.37-1.1-11.21-1.1-14.34 0-22.61 7.72-28.31 19.86h-.37v-17.64h-30.14v95.75h33.08V219.9c0-18.76 8.65-29.97 24.08-29.97 3.87 0 7.53 0 11.2 1.09l1.66-27.57zm56.96 75.92c-15.26 0-21.5-12.68-21.5-26.83 0-14.34 6.24-27.02 21.5-27.02 15.27 0 21.52 12.68 21.52 27.02 0 14.15-6.25 26.83-21.52 26.83zm0 23.15c31.61 0 55.7-18.36 55.7-49.98 0-31.81-24.09-50.2-55.7-50.2-31.62 0-55.68 18.39-55.68 50.2 0 31.62 24.06 49.98 55.68 49.98z"/>
  </g>
</svg>